<?xml version="1.0" encoding="UTF-8"?>
<svg id="Warstwa_1" data-name="Warstwa 1" xmlns="http://www.w3.org/2000/svg" viewBox="0 0 256 217.4">
  <defs>
    <style>
      .cls-1 {
        fill: #000;
        stroke-width: 0px;
      }
    </style>
  </defs>
  <g id="fCagx1.tif">
    <path class="cls-1" d="M256,133.48c-1.61,2.81-4.08,3.46-7.21,3.45-31.7-.08-63.4-.05-95.1-.05-5.3,0-6.39.96-6.93,6.12-1.07,10.23-9.51,17.88-19.3,17.5-10.22-.4-18.11-8.66-18.27-19.16-.02-1.36,0-2.71,0-4.26H19.05v70.84h218.13v-3.49c0-16.94,0-33.88,0-50.82,0-.89-.07-1.79.06-2.66.39-2.54,1.82-4.14,4.47-4.3,2.27-.14,4.22,1.67,4.58,4.17.13.87.07,1.77.07,2.65,0,18.91-.05,37.82.05,56.73.02,3.12-.65,5.58-3.46,7.19H13.04c-2.83-1.59-3.47-4.07-3.46-7.18.09-25.01.05-50.03.05-75.04,0-6.27,1.17-7.46,7.35-7.46,29.43,0,58.85,0,88.28,0,1.17,0,2.34,0,3.69,0,.19-2.54.14-4.89.57-7.16,1.4-7.42,8.18-12.58,15.09-11.67,7.44.99,12.98,7.22,12.72,14.32-.27,7.47-6.33,13.38-14.05,13.66-1.47.05-2.95,0-4.37,0-2.25,8.06,2.14,14.65,9.46,14.47,4.82-.12,8.84-3.9,9.24-8.68.86-10.17,6.08-14.95,16.35-14.95,29.62,0,59.25,0,88.87,0h3.66V47.05c-1.16,0-2.3,0-3.44,0-20.24,0-40.49,0-60.73,0-5.26,0-6.62-1.32-6.79-6.58-.54-16.44-15.16-30.94-31.67-31.18-10.56-.16-21.13-.16-31.7,0-16.52.25-31.15,14.75-31.67,31.19-.17,5.25-1.53,6.58-6.8,6.58-20.14,0-40.29,0-60.43,0-1.17,0-2.33,0-3.91,0,0,1.39,0,2.53,0,3.67,0,19.6,0,39.19,0,58.79,0,.59-.02,1.18,0,1.77.13,2.82-.23,5.46-3.39,6.47-2.97.95-4.48-1.16-5.95-3.18V41.29c1.6-2.82,4.07-3.47,7.2-3.45,20.53.1,41.05.05,61.58.05,1.14,0,2.28,0,3.39,0,.15-.95.22-1.44.31-1.92C76.15,14.91,93.55-.65,116.31.02c8.68.26,17.37-.11,26.05.08,14.27.32,25.59,6.39,33.9,17.98,4.2,5.86,6.38,12.53,7.61,19.8,1.32,0,2.48,0,3.65,0,20.43,0,40.86.05,61.28-.05,3.13-.02,5.6.64,7.2,3.45v92.19ZM118.4,127.69c2.03,0,3.7.11,5.34-.03,2.68-.23,4.45-2.32,4.38-4.97-.07-2.63-2.04-4.61-4.67-4.71-2.67-.09-4.79,1.65-5.02,4.32-.14,1.64-.03,3.31-.03,5.38Z"/>
  </g>
</svg>