<?xml version="1.0" encoding="UTF-8"?>
<svg id="Warstwa_1" data-name="Warstwa 1" xmlns="http://www.w3.org/2000/svg" viewBox="0 0 256 205.04">
  <defs>
    <style>
      .cls-1 {
        fill: #000;
        stroke-width: 0px;
      }
    </style>
  </defs>
  <g id="uDPhIi.tif">
    <path class="cls-1" d="M0,88.79c.56-1.58.81-3.39,1.75-4.7,2.08-2.87,4.03-6.2,6.87-8.11C44.92,51.61,81.36,27.42,117.81,3.27c7.01-4.64,14.16-4.2,21.11.42,30.87,20.53,61.75,41.06,92.63,61.59,5.07,3.37,10.12,6.76,15.21,10.09,4.6,3,7.69,7,8.68,12.48.06.34.36.63.55.94v4.56c-.2.41-.53.8-.6,1.23-1.69,10.35-14.12,18.23-25.06,12.68-.48-.24-1.03-.36-1.91-.66v3.6c0,29.31-.03,58.61.05,87.92,0,3-.63,5.38-3.34,6.92h-125.71c-2.73-1.54-3.34-3.92-3.34-6.93.08-33.43.05-66.85.05-100.28,0-5.27,1.33-6.62,6.52-6.62,16.95,0,33.9,0,50.85,0,4.88,0,6.34,1.43,6.34,6.23,0,12.73.02,25.45-.01,38.18,0,1.6-.06,3.25-.41,4.81-.79,3.46-.33,6.83-.16,10.31.53,10.51.48,21.05.5,31.58,0,2.59-2.1,4.37-4.41,4.34-2.52-.04-4.33-2-4.35-5.01-.06-7.41-.02-14.81-.02-22.22,0-1.01,0-2.03,0-3.12-11.04,3.15-16.62,2.13-20.58-3.62-3.04-4.41-2.91-10.05.33-14.35,4.12-5.47,10.04-6.43,20.06-3.18v-34.87h-45.63v95.57h114.4v-3.49c0-30.48,0-60.97,0-91.45,0-1.04-.07-2.11.13-3.12.62-3.18,3.68-4.66,6.53-3.1,1.83,1,3.51,2.27,5.27,3.41,5.42,3.54,10.89,2.77,14.02-1.97,3.05-4.62,1.71-9.92-3.58-13.44-25.56-17.03-51.14-34.02-76.71-51.03-10.13-6.74-20.26-13.49-30.4-20.21-5.45-3.62-8.17-3.6-13.59,0C85.6,35.15,49.97,58.83,14.33,82.52c-4.4,2.92-6.17,6.63-5.16,10.74,1.46,5.93,8.14,8.89,13.57,5.92,2.08-1.14,3.99-2.57,5.98-3.87,1.66-1.08,3.61-2.13,5.22-.61,1.23,1.16,2.31,3.1,2.37,4.73.25,7.11.11,14.24.11,21.36,0,23.84,0,47.67,0,71.51v3.77h3.26c12.19,0,24.38.01,36.57,0,2.2,0,4.2.3,5.35,2.48,1.24,2.35.49,4.13-2.75,6.51H30.86c-2.73-1.54-3.35-3.92-3.34-6.92.08-29.32.05-58.63.05-87.95v-3.56c-.92.35-1.35.5-1.77.67-11.51,4.61-22.21-.89-25.25-12.97-.09-.34-.36-.64-.54-.96,0-1.52,0-3.04,0-4.56ZM142.22,141.68c-3.02,0-5.21,1.7-5.2,4.06,0,2.3,2.26,4.05,5.25,4.06,2.54.01,6.35-2.45,6.28-4.07-.06-1.64-3.83-4.04-6.33-4.05Z"/>
  </g>
</svg>