<?xml version="1.0" encoding="UTF-8"?>
<svg id="Warstwa_1" data-name="Warstwa 1" xmlns="http://www.w3.org/2000/svg" viewBox="0 0 204.65 254.1">
  <defs>
    <style>
      .cls-1 {
        fill: #000;
        stroke-width: 0px;
      }
    </style>
  </defs>
  <g id="l7U8tT.tif">
    <path class="cls-1" d="M126.74,254.1c-.13-.16-.23-.39-.4-.47-2.43-1.25-3.84-3.13-3.01-5.91.86-2.88,3.19-3.68,5.98-3.66,9.36.09,18.57-1.06,27.49-3.88,19.49-6.16,32.97-18.3,37.03-39.06,2.85-14.57.19-28.68-5.06-42.35-8.66-22.51-22.88-41.19-40.07-57.72-5.64-5.42-11.74-10.36-17.68-15.47-1.77-1.52-3.26-3.1-2.61-5.66.96-3.75,4.87-4.81,8.29-2.27,5.1,3.78,10.05,7.77,15.31,11.3,6.96,4.67,14.38,8.57,22.7,10.17,3.15.61,6.54.73,9.72.3,4.86-.66,6.26-4.1,3.71-8.34-2.8-4.65-7.09-7.8-12.02-9.44-7.16-2.39-14.57-4.09-21.94-5.77-3.51-.8-5.77-2.48-5.62-5.27.15-2.85,2.47-4.29,6.05-4.81,5.17-.76,10.46-1.52,15.34-3.29,5.15-1.86,8.72-5.88,9.87-11.58,1.02-5.11-2.2-8.6-7.33-7.92-7.21.96-13.05,4.79-18.43,9.29-4.05,3.38-7.77,7.18-11.55,10.88-1.98,1.94-4.07,3.24-6.73,1.61-2.38-1.46-2.77-3.62-2.06-6.35,3.2-12.32,8.09-23.84,15.49-34.22.37-.52.75-1.03,1.08-1.56.1-.16.09-.4.29-1.38-6.31-2.23-12.64-4.86-19.18-6.71-19.1-5.41-38.42-7.03-57.83-1.68-4.01,1.11-7.89,3-11.55,5.03-1.96,1.09-3.33,3.25-4.97,4.92l.66.98c1.03-.28,2.07-.51,3.09-.83,13.33-4.17,26.95-6.23,40.91-5.44,6.57.37,13.03,1.54,18.74,5.16,4.93,3.12,7.79,7.6,7.21,13.54-.42,4.36-3.27,7.67-7.3,8.85-5.92,1.73-12.05,3.33-18.17,3.68-12.85.73-25.51-1.04-37.65-5.56-2.74-1.02-5.47-2.4-7.77-4.17-2.16-1.66-3.91-2.1-6.19-.58-1.21.81-2.56,1.4-4.39,2.38,1.3,1.02,2.22,1.78,3.18,2.48,10.83,7.87,20.66,16.85,29.48,26.94,4.73,5.4,4.48,7.23-1.28,11.35-22.48,16.08-41.67,35.26-55.19,59.66-7.25,13.09-12.34,26.9-12.65,42.14-.42,20.44,8.49,35.63,25.75,46.06,12.16,7.35,25.64,10.77,39.54,12.61,7.31.97,14.68,1.4,22.67,2.13,0-2.24,0-3.99,0-5.73,0-5.41-.14-10.82.06-16.23.1-2.6-.88-3.26-3.26-3.31-7.97-.15-15.12-2.78-21.35-7.74-1.72-1.37-3.26-3.04-4.59-4.8-1.99-2.63-1.66-5.26.58-7.05,2.21-1.77,4.81-1.45,6.96,1.07,3.56,4.19,8.06,6.82,13.3,8.13,2.53.63,5.18.76,8.12,1.17.07-1.32.16-2.34.16-3.37.01-13.58-.05-27.15.06-40.73.02-2.31-.76-3.24-2.86-4.06-5.19-2.04-10.55-3.94-15.29-6.81-16.09-9.7-16.52-30.39-1.04-41.11,7-4.85,14.99-6.7,23.36-6.98,3.72-.13,5.61,2.04,5.61,6.1.03,13.36.1,26.73-.06,40.09-.03,2.6.85,3.69,3.16,4.58,8.31,3.18,15.97,7.38,20.88,15.26,11.81,18.95,1.12,43.15-20.75,47.05-.93.17-1.85.42-3.22.73,0,2.02,0,4.1,0,6.18,0,6.58-.14,13.16.06,19.73.1,3.37-.69,6.01-3.71,7.74h-9.52c-6.71-.68-13.44-1.19-20.12-2.07-14.43-1.9-28.41-5.47-41.2-12.68C11.22,227.03-.31,208.44,0,183.06c.2-16.15,5.37-30.98,12.99-45,13.26-24.38,32.17-43.71,54.07-60.3.98-.74,1.92-1.52,3.08-2.43-1.02-1.24-1.78-2.23-2.6-3.17-8.94-10.17-19.08-19-30.69-25.9-6.08-3.61-7.19-7.75-.33-11.94,2.25-1.38,4.51-2.75,6.8-4.06,1.52-.87,3.11-1.63,4.67-2.44-2.11-5.06-.13-8.99,2.6-12.62,3.27-4.35,7.84-7.05,12.76-9.13C73.34,1.83,83.85.35,94.58.06c22.94-.62,44.68,4.06,65,14.91,4.5,2.4,4.66,5.14,1.69,9.22-3.9,5.36-7.26,11.11-10.81,16.72-.39.62-.48,1.43-.87,2.65,2.88-1.9,5.21-3.54,7.64-5.01,5.22-3.16,10.67-5.51,16.99-5.19,9.33.48,15.82,7.36,15.35,16.65-.4,8.01-5.1,13.44-11.19,17.93-1.07.79-2.2,1.5-3.41,2.32.49.37.64.54.82.62,1.07.46,2.15.88,3.21,1.35,7.38,3.26,14.12,7.36,18.03,14.8,5.07,9.65.6,19.41-9.97,21.85-6.08,1.4-12.1.84-18.02-1.3-.02.44-.11.69-.03.8,2.1,2.65,4.28,5.25,6.33,7.94,15.21,19.89,26.8,41.41,28.99,66.93,1.45,16.89-2.2,32.49-13.06,45.85-10.91,13.41-25.69,19.91-42.24,22.93-4.86.89-9.79,1.39-14.68,2.06h-7.61ZM107.75,167.72v42.35c10.17-.38,17.16-7.01,18.38-17.26,1.53-12.9-4.4-21.13-18.38-25.09ZM97.55,117.78c-6.09.33-11.4,1.66-15.8,5.59-5.46,4.88-6.5,14.12-1.96,19.22,4.68,5.27,11.24,6.93,17.76,9.25v-34.06ZM64.49,32.36c1.58.84,2.27,1.31,3.02,1.58,12.29,4.46,24.99,5.91,37.95,4.9,3.42-.27,6.84-1.21,10.12-2.27,2.97-.96,3.26-2.88.7-4.74-1.91-1.39-4.19-2.55-6.48-3.09-15.15-3.56-29.86-.95-45.32,3.62Z"/>
  </g>
</svg>