<?xml version="1.0" encoding="UTF-8"?>
<svg id="Warstwa_1" data-name="Warstwa 1" xmlns="http://www.w3.org/2000/svg" viewBox="0 0 256 256">
  <defs>
    <style>
      .cls-1 {
        fill: #000;
        stroke-width: 0px;
      }
    </style>
  </defs>
  <g id="rPTCyM.tif">
    <path class="cls-1" d="M103.27,256c-.77-.57-1.59-1.07-2.29-1.71-3.12-2.87-2.3-7.67,1.7-9.14,1.53-.56,3.32-.59,4.98-.59,39.15-.03,78.29-.02,117.44-.03,12.39,0,19.43-6.98,19.43-19.28,0-64.84,0-129.68,0-194.53,0-12.33-7-19.27-19.42-19.27-64.72,0-129.44,0-194.16,0-12.62,0-19.5,6.9-19.5,19.56,0,64.72,0,129.44,0,194.16,0,12.36,7.06,19.77,19.33,19.23,9.39-.41,18.92-1.09,28.05-3.12,19.94-4.45,31.09-17.95,35.62-37.44,3.45-14.85,3.91-29.97,4.36-45.11.01-.46-.18-.92-.36-1.83-3.26,0-6.5,0-9.73,0-7.76,0-15.51.02-23.27,0-8.14-.03-12.89-4.76-12.91-12.86-.03-10.67-.03-21.33,0-32,.02-8.34,4.71-12.94,13.17-12.96,10.9-.02,21.81,0,33.18,0,.07-1.41.17-2.68.18-3.95.01-9.82,0-19.63.01-29.45.02-8.46,4.62-13.12,12.99-13.14,10.67-.03,21.33-.03,32,0,8.1.03,12.81,4.78,12.83,12.94.03,11.01,0,22.02,0,33.59,1.53,0,2.81,0,4.08,0,9.82,0,19.63-.02,29.45,0,8.33.02,12.99,4.73,13,13.13.02,10.54.03,21.09,0,31.63-.02,8.33-4.74,13.03-13.1,13.05-9.7.02-19.39,0-29.09,0-1.31,0-2.61,0-4.35,0,0,2.14,0,3.92,0,5.7,0,9.45.05,18.91-.02,28.36-.05,7.61-4.92,12.42-12.57,12.47-6.91.05-13.82.04-20.72,0-4.38-.03-7.05-2.22-7.05-5.63,0-3.42,2.67-5.6,7.06-5.62,7.14-.04,14.28-.01,21.85-.01.06-1.47.17-2.74.17-4.02.01-11.64,0-23.27.01-34.91,0-5.67,1.97-7.61,7.67-7.62,11.51-.02,23.03,0,34.54,0,1.3,0,2.6,0,4.11,0v-35.26c-1.35,0-2.63,0-3.91,0-11.64,0-23.27.02-34.91,0-5.46-.01-7.49-2.01-7.5-7.42-.02-12.84,0-25.67,0-38.81h-35.26v4.31c0,11.15,0,22.3,0,33.45,0,6.83-1.69,8.48-8.65,8.48-11.15,0-22.3,0-33.45,0h-4.19v35.1c1.2.05,2.48.16,3.75.16,11.64.01,23.27,0,34.91.01,5.65,0,7.71,2.01,7.6,7.67-.33,17.79-.58,35.57-4.81,53.04-6.64,27.39-24.23,42.66-51.59,47.3-5.83.99-11.72,1.57-17.58,2.35h-10.18c-.78-.27-1.55-.63-2.35-.8-11.81-2.56-19.27-9.75-22.68-21.25-.41-1.37-.77-2.75-1.15-4.13C0,161.94,0,94.06,0,26.18c.27-.79.63-1.55.8-2.36C3.33,12.18,10.36,4.72,21.72,1.27c1.48-.45,2.97-.84,4.46-1.27,67.88,0,135.76,0,203.64,0,.78.27,1.55.63,2.36.8,11.82,2.55,19.27,9.75,22.67,21.26.41,1.37.77,2.75,1.15,4.12v203.64c-.29.91-.63,1.8-.85,2.72-2.72,11.58-9.83,18.98-21.22,22.32-1.37.4-2.75.77-4.12,1.15h-126.55Z"/>
  </g>
</svg>